<?xml version="1.0" encoding="UTF-8" standalone="no"?>
<svg
   xmlns:dc="http://purl.org/dc/elements/1.1/"
   xmlns:cc="http://creativecommons.org/ns#"
   xmlns:rdf="http://www.w3.org/1999/02/22-rdf-syntax-ns#"
   xmlns:svg="http://www.w3.org/2000/svg"
   xmlns="http://www.w3.org/2000/svg"
   xmlns:xlink="http://www.w3.org/1999/xlink"
   xmlns:sodipodi="http://sodipodi.sourceforge.net/DTD/sodipodi-0.dtd"
   xmlns:inkscape="http://www.inkscape.org/namespaces/inkscape"
   width="163px"
   height="190px"
   viewBox="0 0 163 190"
   version="1.1"
   id="svg2"
   inkscape:version="0.91 r13725"
   sodipodi:docname="logo_zombie_bite.svg">
  <metadata
     id="metadata46">
    <rdf:RDF>
      <cc:Work
         rdf:about="">
        <dc:format>image/svg+xml</dc:format>
        <dc:type
           rdf:resource="http://purl.org/dc/dcmitype/StillImage" />
      </cc:Work>
    </rdf:RDF>
  </metadata>
  <sodipodi:namedview
     pagecolor="#ffffff"
     bordercolor="#666666"
     borderopacity="1"
     objecttolerance="10"
     gridtolerance="10"
     guidetolerance="10"
     inkscape:pageopacity="0"
     inkscape:pageshadow="2"
     inkscape:window-width="1366"
     inkscape:window-height="728"
     id="namedview44"
     showgrid="false"
     inkscape:zoom="2.4842105"
     inkscape:cx="53.839857"
     inkscape:cy="81.762556"
     inkscape:window-x="0"
     inkscape:window-y="25"
     inkscape:window-maximized="1"
     inkscape:current-layer="svg2" />
  <!-- Generator: Sketch 42 (36781) - http://www.bohemiancoding.com/sketch -->
  <title
     id="title4">logo_zombie_bite</title>
  <desc
     id="desc6">Created with Sketch.</desc>
  <defs
     id="defs8">
    <rect
       id="path-1"
       x="0"
       y="0"
       width="14.189009"
       height="38.6809581" />
  </defs>
  <path
     d="m 129.39915,116.36184 c 0,0 21.14314,6.47185 26.05151,-6.34396 4.90836,-12.815805 -6.44624,-12.196242 -7.07952,-14.793113 -1.71175,-7.019231 -3.58029,-15.026433 -1.318,-19.107697 5.13505,-9.263876 -6.11122,-9.967904 -4.53813,-12.805827 4.56449,-8.234553 -8.22154,-8.048689 -7.61902,-9.135675 2.12246,-3.829006 -14.74058,-8.170839 -14.74058,-8.170839 l 9.24374,70.357111 z"
     id="Line"
     inkscape:connector-curvature="0"
     style="fill:#f0949f;fill-rule:evenodd;stroke:#424669;stroke-width:5;stroke-linecap:square" />
  <rect
     id="Lego"
     x="46.430702"
     y="3"
     width="71"
     height="71"
     rx="15"
     style="fill:#f9bd51;fill-rule:evenodd;stroke:#dba649;stroke-width:5" />
  <path
     d="M 144.28618,35.787548 C 138.75581,32.129522 132.12578,30 124.99815,30 L 38.001851,30 C 18.663904,30 3,45.670862 3,65.001851 L 3,151.99815 C 3,171.3361 18.670862,187 38.001851,187 l 86.996299,0 C 144.3361,187 160,171.32914 160,151.99815 L 160,83 l -7.69284,0 c -4.67472,0 -8.81774,-2.274762 -11.38092,-5.777778 l -7.38174,0 c -5.18319,0 -9.38499,-4.202408 -9.38499,-9.388889 0,-2.904604 1.31602,-5.501145 3.38606,-7.223357 -2.06899,-1.722033 -3.38606,-4.317329 -3.38606,-7.221087 0,-5.18534 4.19414,-9.388889 9.38499,-9.388889 l 5.16771,0 c -0.0703,-2.756253 1.19887,-5.4953 3.62132,-7.19152 0.61882,-0.4333 1.27536,-0.7726 1.95265,-1.020932 z"
     id="Combined-Shape"
     inkscape:connector-curvature="0"
     style="fill:#f9bd51;fill-rule:evenodd;stroke:#dba748;stroke-width:5" />
  <g
     style="fill:none;fill-rule:evenodd;stroke:#424669;stroke-width:8.80000019;stroke-linecap:round;stroke-linejoin:bevel"
     transform="translate(100.48526,90)"
     id="Cross">
    <path
       inkscape:connector-curvature="0"
       id="path18"
       d="M 0.36382075,0.36286077 19.296487,19.245572" />
    <path
       inkscape:connector-curvature="0"
       transform="matrix(-1,0,0,1,19.64632,0)"
       id="path20"
       d="M 0.36382075,0.36286077 19.296487,19.245572" />
  </g>
  <g
     style="fill:none;fill-rule:evenodd;stroke:#424669;stroke-width:8.80000019;stroke-linecap:round;stroke-linejoin:bevel"
     id="g22"
     transform="translate(42,90)">
    <path
       inkscape:connector-curvature="0"
       id="path24"
       d="M 0.36382075,0.36286077 19.296487,19.245572" />
    <path
       inkscape:connector-curvature="0"
       transform="matrix(-1,0,0,1,19.64632,0)"
       id="path26"
       d="M 0.36382075,0.36286077 19.296487,19.245572" />
  </g>
  <path
     style="fill:#414669;fill-rule:evenodd;stroke:none;stroke-width:1"
     inkscape:connector-curvature="0"
     id="path29"
     d="m 104.58179,153.00001 c 0.0136,-0.32412 0.0205,-0.64999 0.0205,-0.97746 0,-12.64885 -10.281046,-22.90277 -22.963361,-22.90277 -12.682314,0 -22.963361,10.25392 -22.963361,22.90277 0,0.32747 0.0069,0.65334 0.02054,0.97746 L 104.58179,153 Z" />
  <path
     style="fill:#e74b5e;fill-rule:evenodd;stroke:none;stroke-width:1"
     inkscape:connector-curvature="0"
     id="path31"
     d="m 94.392957,153 c -0.572129,-6.16903 -5.802626,-11 -12.170523,-11 -6.367896,0 -11.598393,4.83097 -12.170522,11 l 24.341045,0 z" />
  <g
     style="fill:#c2edff;fill-rule:evenodd;stroke:none;stroke-width:1;fill-opacity:1"
     id="Mask"
     transform="translate(99,153)">
    <mask
       fill="white"
       id="mask-2">
      <use
         height="100%"
         width="100%"
         y="0"
         x="0"
         id="use36"
         xlink:href="#path-1" />
    </mask>
    <g
       id="g38"
       style="fill:#c2edff;fill-opacity:1" />
    <rect
       style="fill:#c2edff;fill-opacity:1"
       id="rect40"
       rx="3.2"
       height="20.755636"
       width="6.6215377"
       y="-3.773752"
       x="5.6756034"
       mask="url(#mask-2)" />
    <rect
       style="fill:#c2edff;fill-opacity:1"
       id="rect42"
       rx="3.2"
       height="35.850643"
       width="6.6215377"
       y="-3.773752"
       x="0"
       mask="url(#mask-2)" />
  </g>
</svg>
